<svg width="46" height="32" viewBox="0 0 46 32" fill="none" xmlns="http://www.w3.org/2000/svg">
<path d="M6.08967 15.7617L28.4165 15.7617V11.7021L6.08967 11.7021V15.7617Z" fill="#CCCAC6"/>
<path d="M6.09064 23.8809L26.3472 23.8809V19.8213L6.09064 19.8213V23.8809Z" fill="#CCCAC6"/>
<path d="M6.08936 27.9404H18.3488L15.3448 32H6.08936V27.9404Z" fill="#CCCAC6"/>
<path d="M6.08967 7.64233L28.4165 7.64233V3.58275L6.08967 3.58275V7.64233Z" fill="#CCCAC6"/>
<path d="M44.6548 1.18743C43.0716 -0.39581 40.5142 -0.39581 38.931 1.18743L15.9547 24.1647L13.8438 31.9997L21.6784 29.8887L44.6548 6.91144C46.238 5.3282 46.238 2.77067 44.6548 1.18743Z" fill="#0F0E0D"/>
<path d="M41.7762 4.05098L38.9058 1.18042L15.9422 24.1449L18.8126 27.0155L41.7762 4.05098Z" fill="#8F8B85"/>
<path d="M2.02971 7.64235C3.15069 7.64235 4.05942 6.73358 4.05942 5.61256C4.05942 4.49153 3.15069 3.58276 2.02971 3.58276C0.908733 3.58276 0 4.49153 0 5.61256C0 6.73358 0.908733 7.64235 2.02971 7.64235Z" fill="#8F8B85"/>
<path d="M2.02971 15.7615C3.15069 15.7615 4.05942 14.8527 4.05942 13.7317C4.05942 12.6107 3.15069 11.7019 2.02971 11.7019C0.908733 11.7019 0 12.6107 0 13.7317C0 14.8527 0.908733 15.7615 2.02971 15.7615Z" fill="#8F8B85"/>
<path d="M2.02971 23.8806C3.15069 23.8806 4.05942 22.9719 4.05942 21.8508C4.05942 20.7298 3.15069 19.821 2.02971 19.821C0.908733 19.821 0 20.7298 0 21.8508C0 22.9719 0.908733 23.8806 2.02971 23.8806Z" fill="#8F8B85"/>
<path d="M2.02971 32C3.15069 32 4.05942 31.0912 4.05942 29.9702C4.05942 28.8492 3.15069 27.9404 2.02971 27.9404C0.908733 27.9404 0 28.8492 0 29.9702C0 31.0912 0.908733 32 2.02971 32Z" fill="#8F8B85"/>
</svg>
